# Blender v2.90.1 OBJ File: ''
# www.blender.org
o Plane.001
v 0.000000 -0.133356 1.482272
v -1.517628 0.738820 -1.230263
v 0.000000 0.063547 -1.346155
v -0.279799 0.797500 -1.569904
v 1.517629 0.738818 -1.230263
v 0.279800 0.797499 -1.569904
v -0.000000 -0.206247 1.450814
v -1.517628 0.665930 -1.261721
v 0.000000 -0.009344 -1.377613
v -0.279799 0.724609 -1.601362
v 1.517629 0.665928 -1.261721
v 0.279800 0.724609 -1.601362
vt 0.000000 0.000000
vt 0.000000 0.000000
vt 0.000000 0.000000
vt 0.000000 0.000000
vt 0.000000 0.000000
vt 0.000000 0.000000
vt 0.000000 0.000000
vt 0.000000 0.000000
vt 0.000000 0.000000
vt 0.000000 0.000000
vt 0.000000 0.000000
vt 0.000000 0.000000
vn 0.0339 0.9568 0.2887
vn -0.9315 -0.3628 -0.0253
vn -0.0339 0.9568 0.2887
vn 0.9315 -0.3628 -0.0253
vn -0.0339 -0.9568 -0.2887
vn 0.9315 0.3628 0.0253
vn 0.0339 -0.9568 -0.2887
vn -0.9315 0.3628 0.0253
vn 0.8817 -0.1870 0.4332
vn 0.2613 0.3825 -0.8862
vn -0.8711 -0.1946 0.4509
vn -0.2613 0.3825 -0.8862
vn 0.8711 -0.1946 0.4509
vn -0.8817 -0.1870 0.4332
s off
f 2/1/1 1/2/1 4/3/1
f 3/4/2 1/2/2 4/3/2
f 5/5/3 6/6/3 1/2/3
f 3/4/4 6/6/4 1/2/4
f 8/7/5 10/8/5 7/9/5
f 9/10/6 10/8/6 7/9/6
f 11/11/7 7/9/7 12/12/7
f 9/10/8 7/9/8 12/12/8
f 5/5/9 7/9/9 11/11/9
f 6/6/10 11/11/10 12/12/10
f 3/4/11 10/8/11 9/10/11
f 4/3/12 8/7/12 2/1/12
f 3/4/13 12/12/13 6/6/13
f 2/1/14 7/9/14 1/2/14
f 5/5/9 1/2/9 7/9/9
f 6/6/10 5/5/10 11/11/10
f 3/4/11 4/3/11 10/8/11
f 4/3/12 10/8/12 8/7/12
f 3/4/13 9/10/13 12/12/13
f 2/1/14 8/7/14 7/9/14
